<svg width="16" height="16" viewBox="0 0 16 16" fill="none" xmlns="http://www.w3.org/2000/svg">
<path d="M11.2312 2.28796C10.7879 2.28796 10.5663 2.28796 10.3644 2.21304C10.3364 2.20263 10.3087 2.19118 10.2815 2.17871C10.0858 2.08891 9.92905 1.93219 9.61561 1.61875C8.89419 0.897326 8.53348 0.536615 8.08964 0.503354C8.02996 0.498882 7.97004 0.498882 7.91036 0.503354C7.46652 0.536615 7.10581 0.897326 6.38439 1.61875C6.07095 1.93219 5.91423 2.08891 5.71848 2.17871C5.69129 2.19118 5.66365 2.20263 5.6356 2.21304C5.43369 2.28796 5.21205 2.28796 4.76878 2.28796H4.68701C3.55609 2.28796 2.99062 2.28796 2.63929 2.63929C2.28796 2.99062 2.28796 3.55609 2.28796 4.68701V4.76878C2.28796 5.21205 2.28796 5.43369 2.21304 5.6356C2.20263 5.66365 2.19118 5.69129 2.17871 5.71848C2.08891 5.91423 1.93219 6.07095 1.61875 6.38439C0.897326 7.10581 0.536615 7.46652 0.503354 7.91036C0.498882 7.97004 0.498882 8.02996 0.503354 8.08964C0.536615 8.53348 0.897326 8.89419 1.61875 9.61561C1.93219 9.92905 2.08891 10.0858 2.17871 10.2815C2.19118 10.3087 2.20263 10.3364 2.21304 10.3644C2.28796 10.5663 2.28796 10.7879 2.28796 11.2312V11.313C2.28796 12.4439 2.28796 13.0094 2.63929 13.3607C2.99062 13.712 3.55609 13.712 4.68701 13.712H4.76878C5.21205 13.712 5.43369 13.712 5.6356 13.787C5.66364 13.7974 5.69129 13.8088 5.71848 13.8213C5.91423 13.9111 6.07095 14.0678 6.38439 14.3812C7.10581 15.1027 7.46652 15.4634 7.91036 15.4966C7.97004 15.5011 8.02996 15.5011 8.08964 15.4966C8.53348 15.4634 8.89419 15.1027 9.61561 14.3813C9.92905 14.0678 10.0858 13.9111 10.2815 13.8213C10.3087 13.8088 10.3364 13.7974 10.3644 13.787C10.5663 13.712 10.7879 13.712 11.2312 13.712H11.313C12.4439 13.712 13.0094 13.712 13.3607 13.3607C13.712 13.0094 13.712 12.4439 13.712 11.313V11.2312C13.712 10.7879 13.712 10.5663 13.787 10.3644C13.7974 10.3364 13.8088 10.3087 13.8213 10.2815C13.9111 10.0858 14.0678 9.92905 14.3812 9.61561C15.1027 8.89419 15.4634 8.53348 15.4966 8.08964C15.5011 8.02996 15.5011 7.97004 15.4966 7.91036C15.4634 7.46652 15.1027 7.10581 14.3813 6.38439C14.0678 6.07095 13.9111 5.91423 13.8213 5.71848C13.8088 5.69129 13.7974 5.66364 13.787 5.6356C13.712 5.43369 13.712 5.21205 13.712 4.76878V4.68701C13.712 3.55609 13.712 2.99062 13.3607 2.63929C13.0094 2.28796 12.4439 2.28796 11.313 2.28796H11.2312Z" stroke="#141B34"/>
<path d="M8.18164 11V8C8.18164 7.64645 8.18164 7.46967 8.07181 7.35983C7.96197 7.25 7.78519 7.25 7.43164 7.25" stroke="#141B34" stroke-linecap="round" stroke-linejoin="round"/>
<path d="M7.994 5H8.00073" stroke="#141B34" stroke-linecap="round" stroke-linejoin="round"/>
</svg>
