<svg preserveAspectRatio="none" width="100%" height="100%" overflow="visible" style="display: block;" viewBox="0 0 28.3836 23.0473" fill="none" xmlns="http://www.w3.org/2000/svg">
<g id="_x31_06">
<path id="Vector" d="M23.5467 0.299487L23.3314 2.68134C23.3142 2.87249 23.4641 3.03964 23.6593 3.03964C23.8276 3.03964 23.971 2.91122 23.9864 2.74041L24.2017 0.358562C24.218 0.177911 24.0848 0.0178083 23.9038 0.0015412C23.7214 -0.0160101 23.563 0.118408 23.5467 0.299487Z" fill="var(--fill-0, white)"/>
<path id="Vector_2" d="M25.331 3.37655C25.429 3.37655 25.5262 3.33288 25.5908 3.24983L27.1782 1.20917C27.2899 1.06576 27.2638 0.858994 27.1208 0.747692C26.9761 0.635963 26.7706 0.662504 26.6593 0.805055L25.072 2.84572C24.903 3.06267 25.0607 3.37655 25.331 3.37655Z" fill="var(--fill-0, white)"/>
<path id="Vector_3" d="M28.3737 4.45083C28.3292 4.27446 28.1507 4.16744 27.9747 4.21196L25.7076 4.78089C25.5317 4.82498 25.4246 5.00392 25.4687 5.17986C25.5135 5.35724 25.6936 5.46294 25.8677 5.41873L28.1348 4.84981C28.3108 4.80571 28.4178 4.62678 28.3737 4.45083Z" fill="var(--fill-0, white)"/>
<path id="Vector_4" d="M0.967133 23.0471L24.8294 22.8288C25.1124 22.8262 25.438 22.8031 25.6065 22.5757C25.8084 22.3033 25.6381 21.8861 25.3486 21.7095C25.0718 21.5406 24.7317 21.5307 24.406 21.5317C24.4861 20.8429 24.043 8.90509 23.9907 3.9846C23.9885 3.80438 23.8426 3.65968 23.6623 3.65926C22.3668 3.65678 2.39218 3.61862 1.03049 3.61602C0.877518 3.61602 0.736314 3.71596 0.711247 3.90203C0.372393 4.38416 0.0786748 5.15241 0.110567 5.67954C0.443642 11.1848 0.354922 16.4778 0.00199451 22.0225C-0.0334828 22.5796 0.40886 23.0522 0.967133 23.0471ZM23.0294 4.31577C19.5841 7.33539 16.3851 11.0107 13.0421 13.905C8.96821 11.0968 5.13692 7.50986 1.86207 4.27537L23.0294 4.31577ZM1.43463 5.50557C4.02094 8.56904 6.94867 11.3162 10.1393 13.6732C10.8397 14.1905 11.8179 14.7683 12.6722 14.8395C13.3995 14.9002 16.2238 12.1235 17.4224 10.6656C19.3253 8.76356 21.2946 6.7241 23.3467 4.91364C23.4296 10.6117 23.6848 15.5965 23.7522 21.1747C16.2813 21.3643 8.9168 21.2403 1.42561 21.429C1.57461 16.477 1.66525 11.1321 1.42403 5.40605L1.43463 5.50557Z" fill="var(--fill-0, white)"/>
</g>
</svg>
